<svg width="320" height="800" viewBox="0 0 320 800" fill="none" xmlns="http://www.w3.org/2000/svg">
<path fill-rule="evenodd" clip-rule="evenodd" d="M159.974 800L18.3577 737.235C8.68954 732.947 0 721.951 0 711.015L0.0262103 347.289C0.0262103 332.218 11.7676 320 26.2514 320C29.7855 320 33.2832 320.743 36.5343 322.185L80.0105 341.466L149.06 374.448C152.524 376.103 156.249 376.932 159.974 376.936L160 376.945L159.974 800Z" fill="url(#paint0_linear_28_125)"/>
<path fill-rule="evenodd" clip-rule="evenodd" d="M160 800L301.616 737.235C311.284 732.947 319.974 721.951 319.974 711.015L320 347.289C320 332.218 308.259 320 293.775 320C290.241 320 286.743 320.743 283.492 322.185L240.016 341.466L170.967 374.448C167.502 376.103 163.778 376.932 160.052 376.936L160.026 376.945L160 800Z" fill="url(#paint1_linear_28_125)"/>
<path d="M176.177 3.46935L296.494 57.5323C310.792 63.9569 320 78.2436 320 94.0039V223.995C320 239.557 311.02 253.702 296.989 260.24L176.671 316.304C166.096 321.232 153.904 321.232 143.328 316.304L23.0109 260.24C8.98029 253.702 0 239.557 0 223.995L0.00055135 94.0039C0.00055135 78.2436 9.2083 63.9569 23.5064 57.5323L143.824 3.46935C154.118 -1.15645 165.882 -1.15645 176.177 3.46935Z" fill="#F5F5F5"/>
<defs>
<linearGradient id="paint0_linear_28_125" x1="93.9002" y1="534.492" x2="-52.0638" y2="782.748" gradientUnits="userSpaceOnUse">
<stop offset="0.101276" stop-color="#F5F5F5"/>
<stop offset="0.745313" stop-color="#F5F5F5" stop-opacity="0"/>
</linearGradient>
<linearGradient id="paint1_linear_28_125" x1="226.126" y1="534.492" x2="372.09" y2="782.748" gradientUnits="userSpaceOnUse">
<stop offset="0.101276" stop-color="#F5F5F5"/>
<stop offset="0.745313" stop-color="#F5F5F5" stop-opacity="0"/>
</linearGradient>
</defs>
</svg>
